<?xml version="1.0" standalone="no"?>
<!DOCTYPE svg PUBLIC "-//W3C//DTD SVG 20010904//EN"
 "http://www.w3.org/TR/2001/REC-SVG-20010904/DTD/svg10.dtd">
<svg version="1.0" xmlns="http://www.w3.org/2000/svg"
 width="512.000000pt" height="512.000000pt" viewBox="0 0 512.000000 512.000000"
 preserveAspectRatio="xMidYMid meet">
<metadata>
Created by potrace 1.14, written by Peter Selinger 2001-2017
</metadata>
<g transform="translate(0.000000,512.000000) scale(0.100000,-0.100000)"
fill="#000000" stroke="none">
<path d="M0 4225 l0 -45 2560 0 2560 0 0 45 0 45 -2560 0 -2560 0 0 -45z"/>
<path d="M3962 4077 c-6 -7 -16 -62 -22 -123 -15 -158 -51 -299 -117 -451
l-27 -63 -1898 0 -1898 0 0 -45 0 -45 310 0 310 0 0 -370 0 -370 -310 0 -310
0 0 -45 0 -45 310 0 310 0 0 -370 0 -370 -307 -2 -308 -3 -3 -42 -3 -43 1855
0 c1021 0 1856 -3 1856 -6 0 -10 -39 -64 -102 -141 -59 -73 -73 -115 -42 -127
9 -3 141 -6 294 -6 l279 0 -5 -58 c-3 -31 -7 -67 -10 -79 -6 -32 -61 -91 -104
-113 -45 -23 -56 -46 -34 -71 16 -18 38 -19 350 -19 289 0 335 2 348 16 9 8
16 20 16 25 0 12 -37 49 -50 49 -14 0 -79 59 -92 84 -6 11 -14 54 -18 94 l-6
72 56 0 c64 0 100 20 100 54 0 39 -30 56 -98 56 l-62 0 0 85 0 85 295 0 295 0
0 45 0 46 -295 -3 -295 -3 0 206 c0 285 -3 287 -172 99 -201 -225 -218 -246
-218 -274 l0 -26 -100 0 c-83 0 -100 2 -93 14 4 7 100 116 213 242 113 125
235 262 273 304 115 129 111 131 -219 128 l-259 -3 -8 -75 c-24 -226 -68 -393
-142 -539 l-35 -71 -995 0 c-547 0 -998 0 -1002 0 -5 0 -9 166 -11 370 l-2
370 1680 0 1680 0 0 45 0 45 -1680 0 -1680 0 0 370 0 370 991 0 990 0 -23 -41
c-13 -23 -56 -82 -96 -133 -54 -67 -72 -98 -70 -116 l3 -25 292 -3 292 -2 -6
-68 c-7 -86 -26 -126 -75 -160 -84 -57 -92 -66 -79 -90 12 -22 12 -22 355 -22
288 0 345 2 356 15 12 14 5 55 -9 55 -20 0 -104 66 -119 94 -9 17 -19 64 -22
104 l-5 72 61 0 c65 0 94 17 94 56 0 34 -21 44 -92 44 l-68 0 0 110 0 110 295
0 295 0 0 45 0 45 -295 0 -295 0 -2 188 -3 187 -26 3 c-23 3 -44 -16 -147
-130 -66 -73 -142 -159 -168 -190 l-49 -57 -77 -1 c-43 0 -78 2 -78 5 0 3 117
136 260 296 143 160 260 299 260 308 0 39 -16 41 -276 41 -195 0 -254 -3 -262
-13z m-2582 -1097 l0 -370 -185 0 -185 0 0 370 0 370 185 0 185 0 0 -370z
m2760 260 l0 -110 -209 0 c-116 0 -212 4 -215 9 -3 4 35 54 85 110 l90 101
124 0 125 0 0 -110z m-2760 -1090 l0 -370 -185 0 -185 0 0 370 0 370 185 0
185 0 0 -370z m2760 -545 l0 -85 -215 0 c-118 0 -215 3 -215 6 0 4 32 42 71
85 l71 79 144 0 144 0 0 -85z"/>
<path d="M0 900 l0 -40 2560 0 2560 0 0 40 0 40 -2560 0 -2560 0 0 -40z"/>
</g>
</svg>
